<svg xmlns="http://www.w3.org/2000/svg" fill="none" viewBox="0 0 1017 146"><path fill="white" d="M28.177 144H.723V6.825h96.042v27.454H28.177v27.454H69.31v27.454H28.177V144Zm108.669-25.063c1.02.319 2.041.542 3.061.67 1.02.064 2.041.096 3.061.096 2.551 0 5.006-.351 7.366-1.053a26.792 26.792 0 0 0 6.6-2.965 25.006 25.006 0 0 0 5.549-4.783 25.234 25.234 0 0 0 4.017-6.314l19.132 19.228a50.551 50.551 0 0 1-8.418 9.279 50.969 50.969 0 0 1-10.235 6.983 48.544 48.544 0 0 1-11.575 4.305c-4.018 1.02-8.163 1.53-12.436 1.53-7.206 0-13.998-1.339-20.375-4.018-6.314-2.678-11.862-6.409-16.645-11.192-4.719-4.783-8.45-10.458-11.192-17.027-2.742-6.632-4.114-13.903-4.114-21.81 0-8.1 1.372-15.497 4.114-22.193 2.742-6.696 6.473-12.404 11.192-17.123 4.783-4.72 10.331-8.386 16.645-11.001 6.377-2.615 13.169-3.922 20.375-3.922 4.273 0 8.45.51 12.531 1.53a51.635 51.635 0 0 1 11.575 4.4 51.179 51.179 0 0 1 10.331 7.08 50.564 50.564 0 0 1 8.418 9.279l-48.977 59.021Zm13.392-53.856a15.034 15.034 0 0 0-3.635-.86 32.952 32.952 0 0 0-3.635-.192c-3.571 0-6.951.67-10.14 2.009a24.038 24.038 0 0 0-8.226 5.548c-2.296 2.423-4.114 5.357-5.453 8.8-1.339 3.38-2.009 7.207-2.009 11.48 0 .956.032 2.04.096 3.252.127 1.212.287 2.455.478 3.73a57.35 57.35 0 0 0 .861 3.54c.319 1.148.733 2.168 1.244 3.061l30.419-40.368ZM225.139 144h-26.115V41.549h6.314l8.609 12.149c4.209-3.827 8.992-6.76 14.349-8.801a45.129 45.129 0 0 1 16.645-3.157h23.054v26.02h-23.054c-2.742 0-5.325.51-7.748 1.53-2.424 1.02-4.528 2.423-6.314 4.21-1.786 1.785-3.189 3.89-4.209 6.313-1.02 2.423-1.531 5.006-1.531 7.748V144Zm152.29 0h-6.313l-10.14-14.062a86.231 86.231 0 0 1-7.94 6.314 62.062 62.062 0 0 1-8.705 5.07 55.715 55.715 0 0 1-9.47 3.348 38.623 38.623 0 0 1-9.758 1.243c-7.206 0-13.998-1.211-20.375-3.635-6.313-2.423-11.862-5.931-16.645-10.522-4.719-4.656-8.45-10.332-11.192-17.028-2.742-6.696-4.113-14.317-4.113-22.862 0-7.972 1.371-15.274 4.113-21.906 2.742-6.696 6.473-12.436 11.192-17.219 4.783-4.783 10.332-8.482 16.645-11.096 6.377-2.679 13.169-4.018 20.375-4.018 3.317 0 6.601.414 9.853 1.243 3.253.83 6.41 1.977 9.471 3.444a56.944 56.944 0 0 1 8.705 5.166 70.092 70.092 0 0 1 7.844 6.409l10.14-12.149h6.313V144Zm-26.306-52.134c0-3.572-.702-7.015-2.105-10.332-1.339-3.38-3.188-6.345-5.548-8.896a26.627 26.627 0 0 0-8.322-6.218c-3.125-1.594-6.473-2.391-10.045-2.391-3.571 0-6.951.606-10.139 1.817a23.54 23.54 0 0 0-8.227 5.357c-2.296 2.36-4.113 5.293-5.453 8.8-1.339 3.445-2.009 7.399-2.009 11.863 0 4.464.67 8.45 2.009 11.957 1.34 3.444 3.157 6.345 5.453 8.705a23.539 23.539 0 0 0 8.227 5.357c3.188 1.212 6.568 1.818 10.139 1.818 3.572 0 6.92-.766 10.045-2.296 3.188-1.595 5.962-3.667 8.322-6.218a29.845 29.845 0 0 0 5.548-8.896c1.403-3.38 2.105-6.856 2.105-10.427ZM423.728 144h-26.306V.798h26.306V144Zm50.221 0h-27.454V6.825h96.042v27.454h-68.588v27.454h41.134v27.454h-41.134V144Zm167.117 0h-6.313l-10.14-14.062a86.231 86.231 0 0 1-7.94 6.314 62.062 62.062 0 0 1-8.705 5.07 55.715 55.715 0 0 1-9.47 3.348 38.62 38.62 0 0 1-9.757 1.243c-7.207 0-13.999-1.211-20.376-3.635-6.313-2.423-11.862-5.931-16.645-10.522-4.719-4.656-8.449-10.332-11.192-17.028-2.742-6.696-4.113-14.317-4.113-22.862 0-7.972 1.371-15.274 4.113-21.906 2.743-6.696 6.473-12.436 11.192-17.219 4.783-4.783 10.332-8.482 16.645-11.096 6.377-2.679 13.169-4.018 20.376-4.018 3.316 0 6.6.414 9.852 1.243 3.253.83 6.41 1.977 9.471 3.444a56.896 56.896 0 0 1 8.705 5.166 70.092 70.092 0 0 1 7.844 6.409l10.14-12.149h6.313V144ZM614.76 91.866c0-3.572-.702-7.015-2.105-10.332-1.339-3.38-3.188-6.345-5.548-8.896a26.616 26.616 0 0 0-8.322-6.218c-3.125-1.594-6.473-2.391-10.044-2.391-3.572 0-6.952.606-10.14 1.817a23.55 23.55 0 0 0-8.227 5.357c-2.296 2.36-4.113 5.293-5.453 8.8-1.339 3.445-2.008 7.399-2.008 11.863 0 4.464.669 8.45 2.008 11.957 1.34 3.444 3.157 6.345 5.453 8.705a23.548 23.548 0 0 0 8.227 5.357c3.188 1.212 6.568 1.818 10.14 1.818 3.571 0 6.919-.766 10.044-2.296 3.188-1.595 5.963-3.667 8.322-6.218a29.845 29.845 0 0 0 5.548-8.896c1.403-3.38 2.105-6.856 2.105-10.427Zm148.846 0c0 8.035-1.371 15.369-4.114 22.001-2.742 6.633-6.473 12.34-11.192 17.123-4.719 4.72-10.267 8.386-16.644 11.001-6.314 2.615-13.106 3.922-20.376 3.922-7.206 0-13.998-1.339-20.375-4.018-6.314-2.678-11.862-6.409-16.645-11.192-4.719-4.783-8.45-10.458-11.192-17.027-2.742-6.632-4.114-13.903-4.114-21.81V.798h26.211v47.83c1.403-1.786 3.093-3.38 5.07-4.783a31.775 31.775 0 0 1 6.505-3.444 40.938 40.938 0 0 1 7.27-2.009c2.487-.51 4.911-.765 7.27-.765 7.27 0 14.062 1.37 20.376 4.113 6.377 2.679 11.925 6.441 16.644 11.288 4.719 4.847 8.45 10.586 11.192 17.219 2.743 6.568 4.114 13.775 4.114 21.619Zm-26.307 0c0-3.954-.701-7.621-2.104-11.001-1.339-3.444-3.189-6.41-5.548-8.896-2.36-2.488-5.134-4.433-8.323-5.836-3.125-1.403-6.473-2.104-10.044-2.104-3.571 0-6.951.797-10.14 2.391a26.963 26.963 0 0 0-8.226 6.218c-2.36 2.551-4.209 5.516-5.549 8.896a27.344 27.344 0 0 0-2.009 10.332c0 3.954.67 7.62 2.009 11 1.34 3.38 3.189 6.314 5.549 8.801a27.119 27.119 0 0 0 8.226 5.931c3.189 1.403 6.569 2.105 10.14 2.105 3.571 0 6.919-.702 10.044-2.105 3.189-1.467 5.963-3.444 8.323-5.931 2.359-2.487 4.209-5.421 5.548-8.801 1.403-3.38 2.104-7.046 2.104-11ZM804.452 144h-26.306V.798h26.306V144Zm60.744-25.063c1.02.319 2.041.542 3.061.67 1.02.064 2.041.096 3.061.096 2.551 0 5.006-.351 7.366-1.053 2.36-.701 4.56-1.69 6.6-2.965a25.006 25.006 0 0 0 5.549-4.783 25.234 25.234 0 0 0 4.017-6.314l19.132 19.228a50.551 50.551 0 0 1-8.418 9.279 50.94 50.94 0 0 1-10.235 6.983 48.544 48.544 0 0 1-11.575 4.305c-4.018 1.02-8.163 1.53-12.436 1.53-7.206 0-13.998-1.339-20.375-4.018-6.314-2.678-11.862-6.409-16.645-11.192-4.719-4.783-8.45-10.458-11.192-17.027-2.742-6.632-4.113-13.903-4.113-21.81 0-8.1 1.371-15.497 4.113-22.193 2.742-6.696 6.473-12.404 11.192-17.123 4.783-4.72 10.331-8.386 16.645-11.001 6.377-2.615 13.169-3.922 20.375-3.922 4.273 0 8.45.51 12.532 1.53a51.646 51.646 0 0 1 11.574 4.4 51.214 51.214 0 0 1 10.332 7.08 50.636 50.636 0 0 1 8.418 9.279l-48.978 59.021Zm13.392-53.856a15.034 15.034 0 0 0-3.635-.86 32.952 32.952 0 0 0-3.635-.192c-3.571 0-6.951.67-10.14 2.009a24.038 24.038 0 0 0-8.226 5.548c-2.296 2.423-4.114 5.357-5.453 8.8-1.339 3.38-2.009 7.207-2.009 11.48 0 .956.032 2.04.096 3.252.127 1.212.287 2.455.478 3.73a57.35 57.35 0 0 0 .861 3.54c.319 1.148.733 2.168 1.244 3.061l30.419-40.368ZM983.622 144h-59.691v-26.019h59.691c1.786 0 3.316-.638 4.592-1.914 1.275-1.275 1.913-2.806 1.913-4.591 0-1.85-.638-3.061-1.913-3.635-1.276-.574-2.806-.861-4.592-.861h-27.167c-4.528 0-8.769-.861-12.723-2.583-3.954-1.722-7.397-4.05-10.331-6.983-2.933-2.997-5.261-6.473-6.983-10.427-1.658-3.954-2.487-8.195-2.487-12.723 0-4.527.829-8.768 2.487-12.722 1.722-3.954 4.05-7.398 6.983-10.331 2.934-2.934 6.377-5.23 10.331-6.888 3.954-1.722 8.195-2.583 12.723-2.583h52.895v26.02h-52.895c-1.786 0-3.316.637-4.592 1.913-1.275 1.275-1.913 2.806-1.913 4.591 0 1.85.638 3.444 1.913 4.783 1.276 1.276 2.806 1.913 4.592 1.913h27.167c4.464 0 8.673.766 12.627 2.296 3.951 1.467 7.401 3.54 10.331 6.218 2.93 2.679 5.26 5.9 6.98 9.662 1.73 3.762 2.59 7.876 2.59 12.34 0 4.528-.86 8.769-2.59 12.723a34.78 34.78 0 0 1-6.98 10.331c-2.93 2.933-6.38 5.261-10.331 6.983-3.954 1.658-8.163 2.487-12.627 2.487Z"/></svg>